<svg width="30" height="30" viewBox="0 0 30 30" fill="none" xmlns="http://www.w3.org/2000/svg">
<g id="blockchain-07">
<path id="Vector" d="M6.875 13.125C7.02769 13.125 7.16964 13.0544 7.45353 12.913L9.7354 11.777C10.7451 11.2744 11.25 11.023 11.25 10.625V5.625M6.875 13.125C6.72231 13.125 6.58036 13.0544 6.29647 12.913L4.0146 11.777C3.00487 11.2744 2.5 11.023 2.5 10.625V5.625M6.875 13.125V8.125M11.25 5.625C11.25 5.22699 10.7451 4.97565 9.7354 4.47298L7.45353 3.33699C7.16964 3.19566 7.02769 3.125 6.875 3.125C6.72231 3.125 6.58036 3.19566 6.29647 3.33699L4.0146 4.47298C3.00486 4.97565 2.5 5.22699 2.5 5.625M11.25 5.625C11.25 6.02301 10.7451 6.27435 9.7354 6.77702L7.45353 7.91301C7.16964 8.05434 7.02769 8.125 6.875 8.125M2.5 5.625C2.5 6.02301 3.00486 6.27435 4.0146 6.77702L6.29647 7.91301C6.58036 8.05434 6.72231 8.125 6.875 8.125" stroke="#002201" stroke-width="1.5" stroke-linejoin="round"/>
<path id="Vector_2" d="M23.125 13.125C23.2777 13.125 23.4196 13.0544 23.7035 12.913L25.9854 11.777C26.9951 11.2744 27.5 11.023 27.5 10.625V5.625M23.125 13.125C22.9723 13.125 22.8304 13.0544 22.5465 12.913L20.2646 11.777C19.2549 11.2744 18.75 11.023 18.75 10.625V5.625M23.125 13.125V8.125M27.5 5.625C27.5 5.22699 26.9951 4.97565 25.9854 4.47298L23.7035 3.33699C23.4196 3.19566 23.2777 3.125 23.125 3.125C22.9723 3.125 22.8304 3.19566 22.5465 3.33699L20.2646 4.47298C19.2549 4.97565 18.75 5.22699 18.75 5.625M27.5 5.625C27.5 6.02301 26.9951 6.27435 25.9854 6.77702L23.7035 7.91301C23.4196 8.05434 23.2777 8.125 23.125 8.125M18.75 5.625C18.75 6.02301 19.2549 6.27435 20.2646 6.77702L22.5465 7.91301C22.8304 8.05434 22.9723 8.125 23.125 8.125" stroke="#002201" stroke-width="1.5" stroke-linejoin="round"/>
<path id="Vector_3" d="M14.375 8.125H15.625" stroke="#002201" stroke-width="1.5" stroke-linecap="round"/>
<path id="Vector_4" d="M2.5 15.625V20C2.5 21.7556 2.5 22.6334 2.92132 23.2639C3.10372 23.5369 3.3381 23.7713 3.61107 23.9536C4.24164 24.375 5.11943 24.375 6.875 24.375" stroke="#002201" stroke-width="1.5" stroke-linecap="round"/>
<path id="Vector_5" d="M27.5001 15.625V20C27.5001 21.7556 27.5001 22.6334 27.0789 23.2639C26.8965 23.5369 26.6621 23.7713 26.3891 23.9536C25.7585 24.375 24.8806 24.375 23.125 24.375" stroke="#002201" stroke-width="1.5" stroke-linecap="round"/>
<path id="Vector_6" d="M12.8125 21.1639C13.0315 21.1608 13.2735 21.1608 13.5416 21.1608H16.4584C16.7265 21.1608 16.9685 21.1608 17.1875 21.1639M12.8125 21.1639C11.9085 21.1766 11.396 21.2424 11.0521 21.5791C10.625 21.9975 10.625 22.671 10.625 24.0179C10.625 25.3648 10.625 26.0381 11.0521 26.4566C11.4793 26.875 12.1667 26.875 13.5416 26.875H16.4584C17.8333 26.875 18.5208 26.875 18.9479 26.4566C19.375 26.0381 19.375 25.3648 19.375 24.0179C19.375 22.671 19.375 21.9975 18.9479 21.5791C18.604 21.2424 18.0915 21.1766 17.1875 21.1639M12.8125 21.1639V19.0179C12.8125 17.8344 13.7919 16.875 15 16.875C16.2081 16.875 17.1875 17.8344 17.1875 19.0179V21.1639" stroke="#002201" stroke-width="1.5" stroke-linecap="round"/>
</g>
</svg>
