<svg width="103" height="100" viewBox="0 0 103 100" fill="none" xmlns="http://www.w3.org/2000/svg">
<g id="Github svg" clip-path="url(#clip0_853_4)">
<g id="Group">
<path id="Vector" d="M51.2004 0C22.9269 0 0 22.9227 0 51.2004C0 73.8221 14.6705 93.0142 35.014 99.7843C37.5728 100.258 38.5122 98.6737 38.5122 97.3213C38.5122 96.1004 38.4648 92.0672 38.4427 87.7889C24.1987 90.8861 21.193 81.7479 21.193 81.7479C18.864 75.8298 15.5082 74.2562 15.5082 74.2562C10.8628 71.0784 15.8583 71.1437 15.8583 71.1437C20.9997 71.5049 23.7069 76.4199 23.7069 76.4199C28.2735 84.2474 35.6846 81.9844 38.6063 80.6762C39.0659 77.367 40.3928 75.1083 41.857 73.8297C30.4847 72.5351 18.5299 68.1449 18.5299 48.5263C18.5299 42.9364 20.53 38.3689 23.8053 34.7834C23.2737 33.4938 21.5212 28.2862 24.3013 21.2337C24.3013 21.2337 28.6008 19.8577 38.3851 26.482C42.4692 25.3475 46.8492 24.7786 51.2004 24.7591C55.5516 24.7786 59.9351 25.3475 64.0268 26.482C73.7992 19.8577 78.0928 21.2337 78.0928 21.2337C80.8797 28.2862 79.1263 33.4938 78.5947 34.7834C81.8776 38.3689 83.8641 42.9364 83.8641 48.5263C83.8641 68.1915 71.8865 72.5215 60.4853 73.789C62.3218 75.3779 63.9581 78.4938 63.9581 83.2706C63.9581 90.1213 63.8988 95.6349 63.8988 97.3213C63.8988 98.6838 64.8204 100.28 67.4157 99.7776C87.7482 92.9998 102.4 73.8145 102.4 51.2004C102.4 22.9227 79.4765 0 51.2004 0ZM19.1762 72.9361C19.0635 73.1904 18.6633 73.2667 18.2987 73.0921C17.9273 72.9251 17.7188 72.5783 17.8392 72.3231C17.9494 72.0611 18.3504 71.9882 18.7209 72.1637C19.0931 72.3307 19.3051 72.6809 19.1762 72.9361ZM21.6947 75.1833C21.4505 75.4097 20.9732 75.3045 20.6493 74.9467C20.3144 74.5898 20.2517 74.1125 20.4992 73.8827C20.7511 73.6563 21.214 73.7623 21.5497 74.1192C21.8846 74.4804 21.9499 74.9544 21.6947 75.1833ZM23.4225 78.0585C23.1088 78.2764 22.5958 78.0721 22.2787 77.6168C21.965 77.1615 21.965 76.6155 22.2855 76.3967C22.6035 76.178 23.1088 76.3747 23.4301 76.8266C23.743 77.2895 23.743 77.8355 23.4225 78.0585ZM26.3445 81.3885C26.0639 81.6979 25.4662 81.6148 25.0287 81.1926C24.581 80.7797 24.4564 80.1938 24.7379 79.8844C25.0219 79.5741 25.623 79.6614 26.0639 80.0802C26.5082 80.4923 26.6438 81.0824 26.3445 81.3885ZM30.121 82.5126C29.9972 82.9137 29.4215 83.0959 28.8416 82.9255C28.2625 82.75 27.8835 82.2803 28.0005 81.875C28.1209 81.4714 28.6991 81.2815 29.2833 81.4638C29.8616 81.6385 30.2414 82.1048 30.121 82.5126ZM34.4188 82.9894C34.4332 83.4117 33.9414 83.7618 33.3327 83.7695C32.7205 83.783 32.2254 83.4414 32.2186 83.0259C32.2186 82.5994 32.6993 82.2527 33.3115 82.2425C33.9202 82.2306 34.4188 82.5698 34.4188 82.9894ZM38.6409 82.8276C38.7138 83.2397 38.2907 83.6627 37.6862 83.7755C37.0918 83.884 36.5416 83.6297 36.4661 83.221C36.3923 82.7988 36.8231 82.3757 37.4166 82.2663C38.0219 82.1612 38.5637 82.4088 38.6409 82.8276Z" fill="#CD6116"/>
</g>
</g>
<defs>
<clipPath id="clip0_853_4">
<rect width="102.4" height="100" fill="white"/>
</clipPath>
</defs>
</svg>
