<svg width="101" height="100" viewBox="0 0 101 100" fill="none" xmlns="http://www.w3.org/2000/svg">
<g id="Group">
<g id="Artboard">
<path id="Oval" d="M50.1227 100C77.8047 100 100.245 77.6142 100.245 50C100.245 22.3858 77.8047 0 50.1227 0C22.4407 0 0 22.3858 0 50C0 77.6142 22.4407 100 50.1227 100Z" fill="url(#paint0_linear_853_79)"/>
<path id="Path-3" fill-rule="evenodd" clip-rule="evenodd" d="M22.7192 49.4548C37.3188 43.0685 47.0779 38.9408 51.9184 36.9158C65.8154 31.1526 68.7041 30.1401 70.5778 30.1401C70.9682 30.1401 71.9051 30.218 72.5297 30.6853C72.9981 31.0747 73.1542 31.6199 73.2323 32.0093C73.3104 32.3987 73.3885 33.2554 73.3104 33.9563C72.5297 41.8224 69.3287 61.0591 67.6111 69.8598C66.9084 73.5981 65.5031 74.8442 64.1759 75C61.2872 75.2336 59.0231 73.0529 56.2124 71.2616C51.8404 68.38 49.342 66.5887 45.048 63.785C40.1294 60.514 43.3304 58.7227 46.141 55.8411C46.8437 55.0623 59.7257 43.4579 59.9599 42.3676C59.9599 42.2118 60.038 41.7445 59.7257 41.5109C59.4134 41.2772 59.0231 41.3551 58.7108 41.433C58.2423 41.5109 51.2158 46.1838 37.553 55.3738C35.5231 56.7757 33.7275 57.3987 32.0879 57.3987C30.2923 57.3987 26.8571 56.3862 24.2807 55.5295C21.1578 54.5171 18.6594 53.9719 18.8936 52.2585C19.1279 51.3239 20.377 50.3894 22.7192 49.4548Z" fill="white"/>
</g>
</g>
<defs>
<linearGradient id="paint0_linear_853_79" x1="0.0743253" y1="49.9638" x2="100.247" y2="49.9638" gradientUnits="userSpaceOnUse">
<stop stop-color="#2AABEE"/>
<stop offset="1" stop-color="#229ED9"/>
</linearGradient>
</defs>
</svg>
