<svg width="30" height="30" viewBox="0 0 30 30" fill="none" xmlns="http://www.w3.org/2000/svg">
<g id="wallet-add-02">
<path id="Vector" d="M18.75 18.75C18.75 19.7855 19.5895 20.625 20.625 20.625C21.6605 20.625 22.5 19.7855 22.5 18.75C22.5 17.7145 21.6605 16.875 20.625 16.875C19.5895 16.875 18.75 17.7145 18.75 18.75Z" stroke="#EF5DA8" stroke-width="2.625"/>
<path id="Vector_2" d="M3.75 15V7.5C6.38088 8.27666 11.9702 9.28339 18.7548 9.75351C22.4065 10.0066 24.2324 10.1331 25.2411 11.2211C26.25 12.3091 26.25 14.0621 26.25 17.5682V20.0854C26.25 23.6958 26.25 25.501 25.0204 26.6248C23.7906 27.7484 22.1149 27.5846 18.7633 27.2572C17.9465 27.1774 17.1057 27.0825 16.25 26.9703" stroke="#EF5DA8" stroke-width="2.625" stroke-linecap="round" stroke-linejoin="round"/>
<path id="Vector_3" d="M22.0322 10C22.5044 8.22091 22.9316 4.98527 21.6587 3.37865C20.852 2.36033 19.6529 2.45817 18.4773 2.56157C12.2974 3.10507 7.9318 4.20913 5.49126 4.95921C4.44185 5.28175 3.75 6.30652 3.75 7.45055" stroke="#EF5DA8" stroke-width="2.625" stroke-linejoin="round"/>
<path id="Vector_4" d="M13.75 22.5H8.75M8.75 22.5H3.75M8.75 22.5V27.5M8.75 22.5V17.5" stroke="#EF5DA8" stroke-width="2.625" stroke-linecap="round"/>
</g>
</svg>
